<?xml version="1.0" standalone="no"?><!DOCTYPE svg PUBLIC "-//W3C//DTD SVG 1.1//EN" "http://www.w3.org/Graphics/SVG/1.1/DTD/svg11.dtd"><svg t="1525236088950" class="icon" style="" viewBox="0 0 1024 1024" version="1.1" xmlns="http://www.w3.org/2000/svg" p-id="2234" xmlns:xlink="http://www.w3.org/1999/xlink" width="18" height="18"><defs><style type="text/css"></style></defs><path d="M512.001 196.155c174.142 0 315.827 141.687 315.827 315.829s-141.684 315.826-315.827 315.826c-174.142 0-315.831-141.685-315.829-315.826 0-174.142 141.687-315.828 315.83-315.829M512.001 147.568c-201.236 0-364.417 163.134-364.417 364.417 0 201.236 163.181 364.418 364.417 364.418 201.284 0 364.416-163.183 364.417-364.418 0-201.285-163.134-364.417-364.416-364.417z" p-id="2235" fill="#C0C3C9"></path><path d="M512.001 637.632c-6.217 0-12.432-2.371-17.178-7.118l-154.878-154.879c-9.49-9.49-9.49-24.865 0-34.354 9.489-9.488 24.863-9.488 34.354 0l154.878 154.879c9.49 9.491 9.49 24.865 0 34.354-4.746 4.748-10.962 7.118-17.177 7.118z" p-id="2236" fill="#C0C3C9"></path><path d="M512.001 637.632c-6.217 0-12.432-2.371-17.178-7.118-9.49-9.489-9.49-24.863 0-34.354l154.878-154.879c9.489-9.488 24.865-9.488 34.354 0 9.491 9.49 9.492 24.865 0 34.355l-154.878 154.879c-4.746 4.748-10.962 7.118-17.177 7.118z" p-id="2237" fill="#C0C3C9"></path></svg>